<svg width="80" height="80" xmlns="http://www.w3.org/2000/svg" viewBox="-200 -200 500 500" preserveAspectRatio="xMidYMid" class="lds-stripe" style="background:#fefac7 0 0"><defs><pattern id="a" patternUnits="userSpaceOnUse" x="0" y="0" width="100" height="100"><g transform="translate(7.8)"><path fill="orange" d="M-20-10h10v120h-10z" transform="rotate(20 50 50) scale(1.2)"/><path fill="#ffffcb" d="M-10-10H0v120h-10z" transform="rotate(20 50 50) scale(1.2)"/><path fill="orange" d="M0-10h10v120H0z" transform="rotate(20 50 50) scale(1.2)"/><path fill="#ffffcb" d="M10-10h10v120H10z" transform="rotate(20 50 50) scale(1.2)"/><path fill="orange" d="M20-10h10v120H20z" transform="rotate(20 50 50) scale(1.2)"/><path fill="#ffffcb" d="M30-10h10v120H30z" transform="rotate(20 50 50) scale(1.2)"/><path fill="orange" d="M40-10h10v120H40z" transform="rotate(20 50 50) scale(1.2)"/><path fill="#ffffcb" d="M50-10h10v120H50z" transform="rotate(20 50 50) scale(1.2)"/><path fill="orange" d="M60-10h10v120H60z" transform="rotate(20 50 50) scale(1.2)"/><path fill="#ffffcb" d="M70-10h10v120H70z" transform="rotate(20 50 50) scale(1.2)"/><path fill="orange" d="M80-10h10v120H80z" transform="rotate(20 50 50) scale(1.2)"/><path fill="#ffffcb" d="M90-10h10v120H90z" transform="rotate(20 50 50) scale(1.2)"/><path fill="orange" d="M100-10h10v120h-10zM110-10h10v120h-10z" transform="rotate(20 50 50) scale(1.2)"/><animateTransform attributeName="transform" type="translate" values="0 0;26 0" keyTimes="0;1" repeatCount="indefinite" dur="1s"/></g></pattern></defs><rect fill="url(#a)" rx="15" ry="15" x="5" y="36" stroke="orange" stroke-width="5" width="90" height="28"/></svg>